<mxfile host="app.diagrams.net" modified="2023-07-21T17:07:42.226Z" agent="Mozilla/5.0 (Windows NT 10.0; Win64; x64) AppleWebKit/537.36 (KHTML, like Gecko) Chrome/114.0.0.0 Safari/537.36 Edg/114.0.1823.82" version="21.6.3" etag="cn2KwNqv1KCd_baFjUoK" type="github">
  <diagram name="第 1 页" id="9HLPR-c3TmwVtDB9yXLi">
    <mxGraphModel>
      <root>
        <mxCell id="0" />
        <mxCell id="1" parent="0" />
      </root>
    </mxGraphModel>
  </diagram>
</mxfile>
